# xmcd CD database file
#
# Track frame offsets:
#	150
#	23031
#	44819
#	68405
#	91635
#	118454
#	141310
#	161491
#	182834
#
# Disc length: 2654 seconds
#
# Revision: 0
# Processed by: cddbd v1.5.1PL0 Copyright (c) Steve Scherf et al.
# Submitted via: CDex 1.50beta10
#
DISCID=790a5c09
DTITLE=Raphy Leavitt - Raphy Leavitt/Orquesta La Selecta
DYEAR=1988
DGENRE=Salsa
TTITLE0=Amiga De Que
TTITLE1=Se Solicita Un Cariño
TTITLE2=Calla,Corazon
TTITLE3=Tempestad
TTITLE4=Noche De Boda
TTITLE5=Hombre Celoso
TTITLE6=Inventario
TTITLE7=Que Sera Lo Que Unta
TTITLE8=Ecos De Un Danzon (con Sammy Marrero) - bonus track 
EXTD=YEAR: 1988
EXTT0=
EXTT1=
EXTT2=
EXTT3=
EXTT4=
EXTT5=
EXTT6=
EXTT7=
EXTT8=
PLAYORDER=
